<mxfile host="app.diagrams.net" agent="Mozilla/5.0 (Windows NT 10.0; Win64; x64) AppleWebKit/537.36 (KHTML, like Gecko) Chrome/131.0.0.0 Safari/537.36" version="25.0.3">
  <diagram name="PÃ¡gina-1" id="RTQ_2zALifwne0VyCoiF">
    <mxGraphModel dx="1050" dy="530" grid="1" gridSize="10" guides="1" tooltips="1" connect="1" arrows="1" fold="1" page="1" pageScale="1" pageWidth="827" pageHeight="1169" math="0" shadow="0">
      <root>
        <mxCell id="0" />
        <mxCell id="1" parent="0" />
        <mxCell id="0a4a_-yq5lSjFAzIic6y-1" value="S3 aws" style="shape=datastore;whiteSpace=wrap;html=1;fillColor=#f8cecc;strokeColor=#b85450;" vertex="1" parent="1">
          <mxGeometry x="320" y="90" width="60" height="60" as="geometry" />
        </mxCell>
        <mxCell id="0a4a_-yq5lSjFAzIic6y-2" value="Snowflake" style="strokeWidth=2;html=1;shape=mxgraph.flowchart.database;whiteSpace=wrap;fillColor=#dae8fc;strokeColor=#6c8ebf;" vertex="1" parent="1">
          <mxGeometry x="320" y="330" width="60" height="60" as="geometry" />
        </mxCell>
        <mxCell id="0a4a_-yq5lSjFAzIic6y-3" value="Python" style="shape=parallelogram;html=1;strokeWidth=2;perimeter=parallelogramPerimeter;whiteSpace=wrap;rounded=1;arcSize=12;size=0.23;" vertex="1" parent="1">
          <mxGeometry x="290" y="220" width="100" height="60" as="geometry" />
        </mxCell>
        <mxCell id="0a4a_-yq5lSjFAzIic6y-4" value="" style="endArrow=classic;html=1;rounded=0;exitX=0.85;exitY=0.95;exitDx=0;exitDy=0;exitPerimeter=0;entryX=0.856;entryY=-0.02;entryDx=0;entryDy=0;entryPerimeter=0;edgeStyle=orthogonalEdgeStyle;curved=1;" edge="1" parent="1">
          <mxGeometry width="50" height="50" relative="1" as="geometry">
            <mxPoint x="320" y="148.2" as="sourcePoint" />
            <mxPoint x="324.5999999999999" y="219.99999999999994" as="targetPoint" />
            <Array as="points">
              <mxPoint x="290" y="148" />
              <mxPoint x="290" y="220" />
            </Array>
          </mxGeometry>
        </mxCell>
        <mxCell id="0a4a_-yq5lSjFAzIic6y-6" value="get Header CSV" style="edgeLabel;html=1;align=center;verticalAlign=middle;resizable=0;points=[];" vertex="1" connectable="0" parent="0a4a_-yq5lSjFAzIic6y-4">
          <mxGeometry x="0.0241" y="-1" relative="1" as="geometry">
            <mxPoint as="offset" />
          </mxGeometry>
        </mxCell>
        <mxCell id="0a4a_-yq5lSjFAzIic6y-7" value="" style="endArrow=classic;html=1;rounded=0;exitX=0.25;exitY=1;exitDx=0;exitDy=0;entryX=0;entryY=0.15;entryDx=0;entryDy=0;entryPerimeter=0;edgeStyle=orthogonalEdgeStyle;curved=1;" edge="1" parent="1" source="0a4a_-yq5lSjFAzIic6y-3" target="0a4a_-yq5lSjFAzIic6y-2">
          <mxGeometry width="50" height="50" relative="1" as="geometry">
            <mxPoint x="390" y="300" as="sourcePoint" />
            <mxPoint x="440" y="250" as="targetPoint" />
            <Array as="points">
              <mxPoint x="280" y="280" />
              <mxPoint x="280" y="320" />
              <mxPoint x="290" y="320" />
              <mxPoint x="290" y="339" />
            </Array>
          </mxGeometry>
        </mxCell>
        <mxCell id="0a4a_-yq5lSjFAzIic6y-8" value="create table&amp;nbsp;&lt;div&gt;with columns from CSV&lt;/div&gt;" style="edgeLabel;html=1;align=center;verticalAlign=middle;resizable=0;points=[];" vertex="1" connectable="0" parent="0a4a_-yq5lSjFAzIic6y-7">
          <mxGeometry x="0.1005" y="-4" relative="1" as="geometry">
            <mxPoint as="offset" />
          </mxGeometry>
        </mxCell>
        <mxCell id="0a4a_-yq5lSjFAzIic6y-9" value="" style="endArrow=classic;html=1;rounded=0;exitX=0.967;exitY=0.96;exitDx=0;exitDy=0;exitPerimeter=0;entryX=1;entryY=0.15;entryDx=0;entryDy=0;entryPerimeter=0;edgeStyle=orthogonalEdgeStyle;curved=1;" edge="1" parent="1" source="0a4a_-yq5lSjFAzIic6y-1" target="0a4a_-yq5lSjFAzIic6y-2">
          <mxGeometry width="50" height="50" relative="1" as="geometry">
            <mxPoint x="390" y="300" as="sourcePoint" />
            <mxPoint x="440" y="250" as="targetPoint" />
            <Array as="points">
              <mxPoint x="420" y="148" />
              <mxPoint x="420" y="250" />
              <mxPoint x="430" y="250" />
              <mxPoint x="430" y="339" />
            </Array>
          </mxGeometry>
        </mxCell>
        <mxCell id="0a4a_-yq5lSjFAzIic6y-10" value="copy data&lt;br&gt;form csv to table" style="edgeLabel;html=1;align=center;verticalAlign=middle;resizable=0;points=[];" vertex="1" connectable="0" parent="0a4a_-yq5lSjFAzIic6y-9">
          <mxGeometry x="-0.1603" relative="1" as="geometry">
            <mxPoint x="30" as="offset" />
          </mxGeometry>
        </mxCell>
      </root>
    </mxGraphModel>
  </diagram>
</mxfile>
